HIERARCHY
ROOT Hips
{
    OFFSET   0.000000   0.000000   0.000000
    CHANNELS 6 Xposition Yposition Zposition Zrotation Xrotation Yrotation
    JOINT Chest
    {
        OFFSET   0.000000   8.007230   0.000000
        CHANNELS 3 Zrotation Xrotation Yrotation
        JOINT Chest2
        {
            OFFSET   0.000000  22.077100   0.000000
            CHANNELS 3 Zrotation Xrotation Yrotation
            JOINT Neck
            {
                OFFSET   0.000000  23.255100   0.000000
                CHANNELS 3 Zrotation Xrotation Yrotation
                JOINT Head
                {
                    OFFSET   0.000000  14.370100   1.956600
                    CHANNELS 3 Zrotation Xrotation Yrotation
                    End Site
                    {
                        OFFSET   0.000000  19.566000   0.000000
                    }
                }
            }
            JOINT LeftCollar
            {
                OFFSET   3.911900  19.017000  -0.467063
                CHANNELS 3 Zrotation Xrotation Yrotation
                JOINT LeftShoulder
                {
                    OFFSET  10.383700   0.000000   0.000000
                    CHANNELS 3 Zrotation Xrotation Yrotation
                    JOINT LeftElbow
                    {
                        OFFSET  26.662100   0.001193   0.000980
                        CHANNELS 3 Zrotation Xrotation Yrotation
                        JOINT LeftWrist
                        {
                            OFFSET  28.869000  -0.000059  -0.000082
                            CHANNELS 3 Zrotation Xrotation Yrotation
                            JOINT LeftFinger0
                            {
                                OFFSET   2.044650  -2.323450   3.252850
                                CHANNELS 3 Zrotation Xrotation Yrotation
                                JOINT LeftFinger01
                                {
                                    OFFSET   3.088130   0.000000   0.000000
                                    CHANNELS 3 Zrotation Xrotation Yrotation
                                    JOINT LeftFinger02
                                    {
                                        OFFSET   2.639460   0.000000   0.000000
                                        CHANNELS 3 Zrotation Xrotation Yrotation
                                        End Site
                                        {
                                            OFFSET   2.582190   0.000000   0.000000
                                        }
                                    }
                                }
                            }
                            JOINT LeftFinger1
                            {
                                OFFSET   8.364480   0.000000   3.252850
                                CHANNELS 3 Zrotation Xrotation Yrotation
                                JOINT LeftFinger11
                                {
                                    OFFSET   4.646930   0.000000   0.000000
                                    CHANNELS 3 Zrotation Xrotation Yrotation
                                    JOINT LeftFinger12
                                    {
                                        OFFSET   2.323470   0.000000   0.000000
                                        CHANNELS 3 Zrotation Xrotation Yrotation
                                        End Site
                                        {
                                            OFFSET   2.273050   0.000000   0.000000
                                        }
                                    }
                                }
                            }
                            JOINT LeftFinger2
                            {
                                OFFSET   8.364490   0.000016   1.078090
                                CHANNELS 3 Zrotation Xrotation Yrotation
                                JOINT LeftFinger21
                                {
                                    OFFSET   5.111610   0.000000   0.000000
                                    CHANNELS 3 Zrotation Xrotation Yrotation
                                    JOINT LeftFinger22
                                    {
                                        OFFSET   2.788150   0.000016   0.000000
                                        CHANNELS 3 Zrotation Xrotation Yrotation
                                        End Site
                                        {
                                            OFFSET   2.727660   0.000000   0.000000
                                        }
                                    }
                                }
                            }
                            JOINT LeftFinger3
                            {
                                OFFSET   7.899780   0.000015  -1.078090
                                CHANNELS 3 Zrotation Xrotation Yrotation
                                JOINT LeftFinger31
                                {
                                    OFFSET   4.646930   0.000000   0.000000
                                    CHANNELS 3 Zrotation Xrotation Yrotation
                                    JOINT LeftFinger32
                                    {
                                        OFFSET   2.323470   0.000000   0.000000
                                        CHANNELS 3 Zrotation Xrotation Yrotation
                                        End Site
                                        {
                                            OFFSET   2.273050   0.000000   0.000000
                                        }
                                    }
                                }
                            }
                            JOINT LeftFinger4
                            {
                                OFFSET   7.435090   0.000000  -3.252850
                                CHANNELS 3 Zrotation Xrotation Yrotation
                                JOINT LeftFinger41
                                {
                                    OFFSET   3.717550   0.000000   0.000000
                                    CHANNELS 3 Zrotation Xrotation Yrotation
                                    JOINT LeftFinger42
                                    {
                                        OFFSET   1.858770   0.000000   0.000000
                                        CHANNELS 3 Zrotation Xrotation Yrotation
                                        End Site
                                        {
                                            OFFSET   1.818440   0.000000   0.000000
                                        }
                                    }
                                }
                            }
                        }
                    }
                }
            }
            JOINT RightCollar
            {
                OFFSET  -3.911910  19.017000  -0.467062
                CHANNELS 3 Zrotation Xrotation Yrotation
                JOINT RightShoulder
                {
                    OFFSET -10.383700   0.000014   0.000000
                    CHANNELS 3 Zrotation Xrotation Yrotation
                    JOINT RightElbow
                    {
                        OFFSET -26.662100   0.001225   0.001091
                        CHANNELS 3 Zrotation Xrotation Yrotation
                        JOINT RightWrist
                        {
                            OFFSET -28.869000  -0.000020  -0.000085
                            CHANNELS 3 Zrotation Xrotation Yrotation
                            JOINT RightFinger0
                            {
                                OFFSET  -2.044650  -2.323490   3.252850
                                CHANNELS 3 Zrotation Xrotation Yrotation
                                JOINT RightFinger01
                                {
                                    OFFSET  -3.088130   0.000000   0.000000
                                    CHANNELS 3 Zrotation Xrotation Yrotation
                                    JOINT RightFinger02
                                    {
                                        OFFSET  -2.639460   0.000000   0.000000
                                        CHANNELS 3 Zrotation Xrotation Yrotation
                                        End Site
                                        {
                                            OFFSET  -2.582190   0.000000   0.000000
                                        }
                                    }
                                }
                            }
                            JOINT RightFinger1
                            {
                                OFFSET  -8.364480   0.000000   3.252850
                                CHANNELS 3 Zrotation Xrotation Yrotation
                                JOINT RightFinger11
                                {
                                    OFFSET  -4.646930   0.000000   0.000000
                                    CHANNELS 3 Zrotation Xrotation Yrotation
                                    JOINT RightFinger12
                                    {
                                        OFFSET  -2.323470   0.000000   0.000000
                                        CHANNELS 3 Zrotation Xrotation Yrotation
                                        End Site
                                        {
                                            OFFSET  -2.273050   0.000000   0.000000
                                        }
                                    }
                                }
                            }
                            JOINT RightFinger2
                            {
                                OFFSET  -8.364480   0.000000   1.078090
                                CHANNELS 3 Zrotation Xrotation Yrotation
                                JOINT RightFinger21
                                {
                                    OFFSET  -5.111620   0.000000   0.000000
                                    CHANNELS 3 Zrotation Xrotation Yrotation
                                    JOINT RightFinger22
                                    {
                                        OFFSET  -2.788160   0.000000   0.000000
                                        CHANNELS 3 Zrotation Xrotation Yrotation
                                        End Site
                                        {
                                            OFFSET  -2.727660   0.000000   0.000000
                                        }
                                    }
                                }
                            }
                            JOINT RightFinger3
                            {
                                OFFSET  -7.899780   0.000000  -1.078090
                                CHANNELS 3 Zrotation Xrotation Yrotation
                                JOINT RightFinger31
                                {
                                    OFFSET  -4.646930   0.000000   0.000000
                                    CHANNELS 3 Zrotation Xrotation Yrotation
                                    JOINT RightFinger32
                                    {
                                        OFFSET  -2.323470   0.000000   0.000000
                                        CHANNELS 3 Zrotation Xrotation Yrotation
                                        End Site
                                        {
                                            OFFSET  -2.273050   0.000000   0.000000
                                        }
                                    }
                                }
                            }
                            JOINT RightFinger4
                            {
                                OFFSET  -7.435090   0.000000  -3.252850
                                CHANNELS 3 Zrotation Xrotation Yrotation
                                JOINT RightFinger41
                                {
                                    OFFSET  -3.717550   0.000000   0.000000
                                    CHANNELS 3 Zrotation Xrotation Yrotation
                                    JOINT RightFinger42
                                    {
                                        OFFSET  -1.858760   0.000000   0.000000
                                        CHANNELS 3 Zrotation Xrotation Yrotation
                                        End Site
                                        {
                                            OFFSET  -1.818440   0.000000   0.000000
                                        }
                                    }
                                }
                            }
                        }
                    }
                }
            }
        }
    }
    JOINT LeftHip
    {
        OFFSET   9.783030   0.000000   0.000000
        CHANNELS 3 Zrotation Xrotation Yrotation
        JOINT LeftKnee
        {
            OFFSET   0.000063 -41.789100   0.000608
            CHANNELS 3 Zrotation Xrotation Yrotation
            JOINT LeftAnkle
            {
                OFFSET   0.000048 -41.133200  -0.000184
                CHANNELS 3 Zrotation Xrotation Yrotation
                JOINT LeftToe
                {
                    OFFSET   0.000000  -6.358960  14.674500
                    CHANNELS 3 Zrotation Xrotation Yrotation
                    End Site
                    {
                        OFFSET   0.000000   0.000000   3.913200
                    }
                }
            }
        }
    }
    JOINT RightHip
    {
        OFFSET  -9.783030   0.000000   0.000000
        CHANNELS 3 Zrotation Xrotation Yrotation
        JOINT RightKnee
        {
            OFFSET   0.000071 -41.789100   0.001239
            CHANNELS 3 Zrotation Xrotation Yrotation
            JOINT RightAnkle
            {
                OFFSET   0.000037 -41.133200  -0.000166
                CHANNELS 3 Zrotation Xrotation Yrotation
                JOINT RightToe
                {
                    OFFSET   0.000000  -6.358960  14.674500
                    CHANNELS 3 Zrotation Xrotation Yrotation
                    End Site
                    {
                        OFFSET   0.000000   0.000000   3.913200
                    }
                }
            }
        }
    }
}
MOTION
Frames: 4
Frame Time:   0.016667
 -0.041854  90.230900   0.477464  -2.760800 -16.445100  -5.940150  -0.467021  10.524700   0.329548  -1.023500  21.046100   0.768091   2.535170  -3.073070   0.136043   4.197940  -6.195750  14.948200  -9.560680  -6.796050  -0.753130 -64.562600  18.793600 -46.186600   4.320730 -19.097000 -70.149200  51.757600 -27.617600  52.091300  81.441500  48.427300 -108.203000  22.320800  -0.003927   0.002153  15.000000   0.000257  -0.001021 -40.780300   7.421860  -8.501300 -33.818300   0.002075  -0.001527 -23.968200   0.001739  -0.000401 -38.048800  -3.564910   4.528360 -54.213600   0.003076  -0.005145 -36.714100   0.004079   0.002057 -33.808000  -5.210740   7.722100 -51.239700  -0.000750  -0.001655 -34.125700  -0.000366   0.001144 -49.363600  -6.960220   5.935050 -74.589500  -0.001403  -0.002571 -49.676700   0.000776  -0.002588  12.287600  -0.040487  15.005500  63.534500   6.703350  46.700900  -9.462030 -27.109400  68.061800 -70.552600 -33.319000 -10.078300 -38.105600  36.135200  79.236900  22.447000   0.014968  -0.039204   6.223510  -0.004733  -0.020301  39.781800  -3.413870  -4.090960  32.648500   0.002073  -0.000171  22.904000   0.005231  -0.001161  29.071300  -3.746270  -6.706260  43.936100   0.000339   0.000397  29.261400   0.000082  -0.001485  32.764700  -5.163990  -7.960030  49.686400  -0.003412   0.000450  33.091200   0.000276  -0.000432  53.227700 -10.499000  -7.756710  80.912400  -0.000740  -0.002873  53.887700   0.002061   0.001122   0.138376  16.975000   2.637810   0.245249   2.238680  14.081800  -4.447880  -4.862770   5.710020   0.000000   0.000000  -0.000000   3.249990  15.591100 -10.667200  -0.846332   4.442050  -6.785920 -11.039600  -0.681441   4.092360   0.000000   0.000000  -0.000000
 -0.030269  90.201000   0.503348  -2.697230 -16.360700  -5.837250  -0.451289  10.496900   0.325323  -0.989518  20.990600   0.753500   2.920530  -3.166520   0.160897   4.843500  -6.369990  15.418900  -9.718430  -6.642160  -0.892799 -65.327400  17.987500 -44.824600   4.516740 -18.551000 -70.752400  51.500500 -27.585400  50.829000  81.601000  48.383900 -108.144000  22.344000  -0.003702   0.001991  15.000000   0.000325  -0.001281 -40.983200   7.364750  -8.389150 -33.972400   0.001936  -0.001558 -24.110600   0.001629  -0.000378 -38.247100  -3.567640   4.498920 -54.225700   0.003017  -0.005078 -36.775500   0.003964   0.001920 -33.846200  -5.212820   7.713110 -51.296700  -0.000782  -0.001911 -34.163700  -0.000413   0.001087 -49.224400  -7.000140   5.991920 -74.388600  -0.001576  -0.002597 -49.542900   0.000771  -0.003080  12.403000  -0.043375  14.717100  63.921200   6.825880  45.642200  -9.301320 -27.063100  68.603900 -70.512000 -33.882500 -10.029700 -39.211700  37.805500  81.202700  20.600600   0.009482  -0.020263   5.300290  -0.004677  -0.010151  39.807900  -3.412110  -4.084530  32.669600   0.002091   0.000114  22.922800   0.005142  -0.001206  29.153500  -3.745820  -6.683000  44.058200   0.000388   0.000252  29.342800  -0.000172  -0.001801  32.714400  -5.160610  -7.971920  49.611300  -0.003112   0.000493  33.041100   0.000243  -0.000106  52.564500 -10.660100  -8.065460  79.977000  -0.000537  -0.002567  53.264700   0.000332   0.001177   0.101177  16.838800   2.658580   0.272757   2.239640  14.129900  -4.471280  -4.815390   5.560230  -0.000000   0.000000   0.000000   3.194970  15.512700 -10.737900  -0.851256   4.436050  -6.742030 -11.026200  -0.656908   4.055430  -0.000000   0.000000   0.000000
 -0.024778  90.165500   0.520450  -2.624960 -16.263600  -5.733650  -0.435010  10.469000   0.324695  -0.956183  20.935200   0.751177   3.264880  -3.194100   0.182123   5.410160  -6.413490  15.716400  -9.885660  -6.541260  -1.032500 -66.195800  17.211400 -43.646500   4.878090 -18.066400 -71.280800  51.243700 -27.531800  49.544100  81.360000  48.364500 -107.920000  22.347300  -0.003474   0.001854  15.000000   0.000392  -0.001542 -41.346000   7.068540  -7.971870 -34.225100   0.001785  -0.001578 -24.343900   0.001512  -0.000344 -38.689400  -3.570870   4.434900 -54.253200   0.002960  -0.005003 -36.912900   0.003844   0.001799 -33.947600  -5.216940   7.689820 -51.447800  -0.000800  -0.001993 -34.264300  -0.000435   0.001041 -49.193200  -7.055840   6.049020 -74.350100  -0.001727  -0.002605 -49.517200   0.000766  -0.003569  12.571200  -0.063283  14.450300  64.458900   6.924510  44.763300  -9.488800 -27.038400  68.978300 -70.402800 -34.129200  -9.857670 -39.580100  38.306800  81.857200  19.923800   0.003435  -0.001191   4.961900  -0.004620   0.000000  39.851100  -3.409060  -4.074090  32.704600   0.002093   0.000340  22.954400   0.005014  -0.001256  29.181800  -3.745590  -6.674650  44.100100   0.000416   0.000118  29.370700  -0.000387  -0.001973  32.664100  -5.157240  -7.983800  49.536100  -0.002747   0.000499  32.991000   0.000176  -0.000000  51.883500 -10.823800  -8.383150  79.018800  -0.000358  -0.002273  52.626600  -0.001944   0.001232   0.062941  16.730400   2.667020   0.275410   2.239370  14.178100  -4.498800  -4.765280   5.424480   0.000000   0.000000   0.000000   3.146030  15.395100 -10.852600  -0.862134   4.435850  -6.662930 -11.013300  -0.635041   4.005110  -0.000000   0.000000   0.000000
 -0.027449  90.129600   0.507345  -2.555260 -16.162500  -5.638660  -0.435107  10.474500   0.329478  -0.957359  20.946100   0.761102   3.543840  -3.189970   0.197708   5.868850  -6.394910  15.950400  -9.995680  -6.556030  -1.029750 -66.743000  16.658100 -42.939500   5.342840 -17.763200 -71.659200  51.037600 -27.918400  49.128300  80.030800  48.439300 -107.104000  22.206200  -0.003252   0.001737  15.000000   0.000466  -0.001787 -41.742500   6.165100  -6.867040 -34.450700   0.001610  -0.001582 -24.551900   0.001387  -0.000298 -39.466900  -3.573730   4.326030 -54.303100   0.002914  -0.004941 -37.155600   0.003704   0.001702 -34.162300  -5.222990   7.641590 -51.766800  -0.000800  -0.002147 -34.476700  -0.000444   0.001017 -49.577800  -7.076110   5.983620 -74.922800  -0.001860  -0.002591 -49.898600   0.000770  -0.004062  12.798800  -0.180980  14.406600  65.040100   6.914970  44.126000 -10.038800 -27.076300  69.184200 -70.291500 -34.633600  -9.785250 -39.038600  37.468200  80.974200  20.568600   0.002863  -0.001039   5.284310  -0.004561   0.000000  39.981500  -3.398200  -4.042560  32.810200   0.002067   0.000606  23.050000   0.004865  -0.001312  29.183200  -3.745150  -6.674170  44.102200   0.000428  -0.000001  29.372000  -0.000563  -0.002207  32.669500  -5.157890  -7.982530  49.544300  -0.002323   0.000497  32.996400   0.000087   0.000208  51.545200 -10.903100  -8.541860  78.543400  -0.000206  -0.001983  52.310000  -0.002494   0.001287   0.053432  16.594500   2.694350   0.260671   2.228250  14.142000  -4.523240  -4.706690   5.349580  -0.000000   0.000000  -0.000000   3.098910  15.265200 -10.955300  -0.882644   4.452020  -6.565860 -11.008400  -0.613623   3.939600  -0.000000   0.000000   0.000000
